<svg xmlns="http://www.w3.org/2000/svg" width="512" height="512" viewBox="0 0 512 512" role="img" aria-label="WikiDeck"><rect width="512" height="512" rx="115" fill="#12161C"/><g transform="translate(97.28 97.28) scale(1.240000)"><rect x="83" y="14" width="132" height="196" rx="14" fill="#C86BFF"/><rect x="44" y="25" width="154" height="218" rx="25" fill="#12161C"/><rect x="55" y="36" width="132" height="196" rx="14" fill="#C86BFF"/><rect x="30" y="36" width="154" height="218" rx="25" fill="#12161C"/><rect x="41" y="47" width="132" height="196" rx="14" fill="#C86BFF"/><rect x="59" y="64" width="96" height="74" rx="8" fill="#12161C"/><path fill="#C86BFF" d="M69 74 L84.2 74 L87.24 119.64 L107 90.2 L126.76 119.64 L129.8 74 L145 74 L132.08 128 L116.88 128 L107 102.08 L97.12 128 L81.92 128 Z"/><rect x="59" y="197" width="96" height="12" rx="6" fill="#12161C"/></g></svg>